<?xml version="1.0" encoding="UTF-8"?>
<svg id="Layer_1" data-name="Layer 1" xmlns="http://www.w3.org/2000/svg" viewBox="0 0 1117 1117">
  <defs>
    <style>
      .cls-1 {
        stroke-width: 0px;
      }
    </style>
  </defs>
  <path class="cls-1" d="m625.8,785.91c5.57,11.59,8.11,23.46,7.4,36.02-.75,13.18-9.62,24.32-22.07,28.56-5.81,1.98-11.24,4.83-17.51,5.65-10.68,1.41-20.14-1.79-29.13-6.86-4.6-2.59-7.28-6.85-7.61-12.24-.49-7.98-.98-15.96-1.13-23.94-.18-9.45,3.72-16.37,13.1-19.61,3.14-1.09,6.16-2.53,9.19-3.94,2.71-1.26,2.61-2.71.1-4.2-2.85-1.68-5.68-2.38-9.03-1.21-22.78,7.97-32.7,23.53-32.76,49.75-.03,12.94,5.83,23.82,12.38,34.32,7.59,12.16,16.11,23.9,19.7,37.98,4.34,17.01,2.55,33.68-5.08,49.59-.88,1.83-2.36,3.21-4.2,4.16-2.65,1.39-5.22,1.4-7.27-.95-1.97-2.27-1.33-4.75.32-6.87,10.92-13.92,9.3-29.6,5.7-45.16-2.34-10.13-8.27-18.83-14.06-27.42-4.47-6.64-8.32-13.64-11.76-20.89-9.45-19.93-7.32-39.49,1.77-58.77,4.2-8.9,11.44-15.02,19.84-19.86,1.37-.79,3.58-1.3,3.11-3.36-.53-2.34-2.9-1.8-4.63-1.87-5.65-.23-11.33.23-16.96-.71-1.77-.29-3.98.02-4.5-2.29-.5-2.22,1.56-3.12,2.93-4.23,1.94-1.58,3.9-3.16,6.01-4.47,3.33-2.07,2.86-3.85.12-6.08-9.04-7.39-18.78-13.82-28.28-20.57-5.16-3.67-10.42-7.17-15.19-11.37-11.04-9.72-24.42-15.79-37.51-21.69-18.79-8.47-37.98-16.25-57.57-22.85-20.8-7.02-41.57-14.12-62.34-21.22-2.2-.75-4.52-1.44-6.45-2.68-9.77-6.22-20.68-6.71-31.75-6.92-23.89-.45-47.6,1.05-71.18,5.13-9.03,1.56-18.33,1.11-27.45.58-15.97-.94-31.23,2.23-46.1,7.27-23.05,7.82-43.08,20.78-60.53,37.72-1.38,1.34-3.63,2.71-2.88,4.87.82,2.38,3.43,1.41,5.31,1.49,2.03.09,3.87.59,5.79,1.28,17.96,6.52,28.53,18.9,30.67,38.12.24,2.15,1.11,4.27,1.08,6.4-.19,13.41,5.87,23.91,14.76,33.3,3.32,3.51,5.93,7.66,7.55,12.29,2.81,8.06-.18,13.14-8.58,14.05-3.9.42-5.17,2.12-4.95,5.81.49,8.04-.39,15.97-2.06,23.84-1.28,6.04-4.79,9.71-10.89,10.9-7.51,1.46-14.9,3.49-22.57,4.26-7.47.75-8,1.74-8.18,9.05-.12,4.98,1.09,9.55,3.31,13.95,1.28,2.53,2.52,5.11,2.44,8.05-.06,2.16-.97,3.94-3.12,4.67-2.17.74-4.16-.08-5.24-1.91-6.35-10.83-9.88-22.35-6.41-34.88,1.72-6.21,7.51-7.86,13.04-8.48,7.49-.84,14.72-2.82,22.11-4.06,3.95-.66,5.69-2.6,6.19-6.51.93-7.27,1.86-14.51,1.72-21.88-.15-7.85,2.17-10.79,9.88-12.62,3.61-.86,3.53-2.45,1.78-4.81-3.07-4.15-6.02-8.43-9.47-12.24-5.91-6.55-9.29-14-10.22-22.79-.96-9.11-2.7-18.08-5.31-26.91-2.1-7.12-7.77-10.6-13.24-14.31-3.06-2.07-3.68.32-3.68,2.83.02,7.99-.1,16,.19,23.98.16,4.28.05,8.61-2.21,12.12-5.74,8.92-11.74,17.81-19.9,24.7-6.93,5.84-17.3,5.24-24.5-.38-1.83-1.43-3.81-2.68-5.77-3.94-12.45-7.99-17.68-24.36-11.56-37.9,2.09-4.62,4.38-8.83,2.69-14.06-.85-2.63,2.41-6.35-.38-7.82-2.79-1.48-5.94,1.43-8.63,2.89-14.11,7.61-20.13,20.13-21.13,35.61-1.07,16.5,2.45,31.18,12.84,44.9,10.13,13.37,17.88,28.48,20.4,45.62,1.34,9.06,0,18.06-1.45,26.82-.97,5.9-5.54,10.9-10.54,14.74-2,1.54-4.41,1.73-6.4-.22-1.99-1.95-1.85-4.31-.29-6.36,13.99-18.4,10.09-37.34,1.13-56.01-4.08-8.5-9.12-16.58-14.62-24.38-15.52-22.02-14.86-45.89-4.92-69.45,5.12-12.14,16.02-19.72,28.71-24.11,4.99-1.73,4.82-2.3,1.22-6.18-4.97-5.36-9.62-11.04-14.27-16.69-1.91-2.32-3.54-4.83-6.12-6.52-1.12-.73-2.33-1.64-1.96-3.18.37-1.53,1.86-1.67,3.16-2.02,4.92-1.29,9.57.33,14.29,1.23,10.27,1.95,9.95,1.87,12.6-7.97,2.72-10.08,2.45-20.48,3.94-30.69,1.19-8.12,2.08-16.26,5.39-23.76,5.06-11.47,8-23.62,11.95-35.44,2.26-6.75,4.14-13.65,6.3-20.45,7.63-23.96,17.15-47.24,25.11-71.07,1.06-3.19,2.65-6.14,4.66-8.8,7.65-10.13,11.53-22.07,16.35-33.58,9.58-22.9,22.57-43.06,45.47-54.99,1.92-1,3.81-2.08,5.57-3.33,18.11-12.88,38.44-16.83,60.19-15,4.03.34,7.89,1.61,11.47,3.36,15.18,7.42,31.26,12.41,47.17,17.86,7.49,2.57,13.21,6.82,16.63,14.08,1.13,2.39,2.99,4.44,4.08,6.85,1.15,2.54,2.9,3.29,5.5,3.35,5.65.12,11.35-.2,16.89,1.4,1.05.3,2.36.96,3.17-.35.68-1.09.22-2.31-.35-3.33-2.39-4.34-6.09-7.44-9.91-10.42-1.96-1.53-4.26-2.76-5.43-5.07-1.38-2.71-.84-4.82,2.59-4.58,5.16.36,10.18-1.44,15.37-.66,3.34.5,4.05-2.19,4.6-4.75,4.34-20.1,16.52-35.96,29.24-51.05,8.94-10.62,19.02-20.51,30.24-29.03,5.02-3.81,8.26-9.38,13.34-13.37,21.48-16.85,45.66-26.65,72.82-28.35,11.78-.74,23.6-1.27,35.41-1.83,4.97-.23,9.51,1.14,13.92,3.37,13.79,6.99,27.66,13.84,41.44,20.85,5.89,3,10.54,7.55,14.63,12.67,6.86,8.61,12.63,17.94,18.37,27.31,2.51,4.09,7.06,2.07,10.49,1.93,3.01-.12,1.4-3.53,1.25-5.43-.46-5.98-1.28-11.92-1.85-17.89-.21-2.21-.04-4.51,2.39-5.54,2.3-.97,3.67.89,5.18,2.15,3.69,3.07,6.72,8.3,11.16,8.75,4.56.46,8.22-4.49,11.91-7.46,19.34-15.56,41.92-23.61,65.7-29.05,7.74-1.77,15.6-1.15,23.41-1.16,4.04,0,7.95-.31,11.76-1.81,7.07-2.79,14.42-3.78,22.03-3.59,9.16.23,18.33.21,27.5.02,20.6-.43,40.37,3.77,59.82,10.1,9.5,3.1,16.97,9.86,25.88,14.01,3.82,1.78,7.57,3.39,11.88,3.43,1.46.01,3.08.29,4.35.96,14.42,7.59,29.86,13.01,43.58,22.2,10.1,6.77,20.25,13.28,29.56,21.21,13.63,11.61,23.65,25.76,30.74,41.89,5.58,12.71,12,24.82,19.67,36.38,8.76,13.2,16.16,27.26,23.07,41.46,5.83,11.97,7.97,25.34,10.08,38.5.42,2.59.99,4.23,4.06,4.59,26.08,3.02,44.82,22.16,47.32,48.13.08.83-.03,1.7.18,2.49,6.84,25.06-7.16,44.32-18.44,63.99-9.84,17.17-16.94,34.62-14.52,54.84.61,5.09,2.12,9.74,5.65,13.6,2.31,2.53,4.01,5.43.9,8.27-3.06,2.81-5.91.83-8.33-1.46-4.97-4.7-7.03-10.76-7.96-17.36-3.33-23.67,3.31-44.77,16.41-64.24,7.02-10.43,13.48-21.96,16.1-33.59,3.36-14.95,2.03-31.28-6.7-45.3-4.78-7.68-12.25-12.59-20.26-16.57-1.93-.96-1.96-.89-5.06-.42.23,1.75,2.1,2.01,2.9,3.21,1.89,2.83,2.54,5.89-.74,7.79-3.76,2.18-1.73,3.03.45,4.11,2.73,1.36,5.08,3.18,7.14,5.39,4.86,5.23,6.51,11,3.48,17.87-1.6,3.64-2.25,7.71-3.9,11.31-5.56,12.09-26.31,22.09-39.31,19.16-4.44-1-7.7-3.9-10.62-7.14-3.9-4.33-7.88-8.52-12.28-12.39-7.31-6.42-7.4-15.66-.77-22.87,3.83-4.17,7.46-8.49,11.02-12.9,2.62-3.25,2.89-6.99,4.13-10.53.83-2.38-.84-3.38-2.96-3.47-4.41-.19-8.6.44-12.27,3.29-4.47,3.47-9.05,6.82-13.64,10.14-2.66,1.93-4.56,4.42-5.65,7.46-2.7,7.52-6,15-6.58,23-.95,13.05-7.17,23.3-15.57,32.66-1.89,2.1-3.5,4.45-5.3,6.63-1.95,2.37-1.74,3.58,1.57,4.24,7.34,1.48,9.91,4.24,10.39,11.79.45,7.14.19,14.33.44,21.49.29,8.52,1.77,9.87,9.98,11.33,5.8,1.03,11.65.55,17.44,1.19,8.63.94,13.57,5.45,15.24,13.98,2.24,11.43-2.74,20.83-8.71,29.85-1.35,2.04-3.69,3.06-6.16,1.67-2.36-1.33-2.9-3.58-2.08-6.06.57-1.73,1.35-3.4,2.14-5.05,1.22-2.56,2.72-4.99,3.76-7.62,4.3-10.85.46-16.79-10.94-16.8-5.87,0-11.62-.54-17.33-1.92-6.43-1.55-10.51-5.29-12.32-11.72-2.3-8.2-1.62-16.55-1.47-24.85.08-4.52-.8-6.79-5.95-7.55-10.59-1.56-13.12-8.82-6.49-17.09,3.12-3.9,6.11-7.93,9.5-11.58,7.72-8.3,11.3-18.17,12.28-29.29.54-6.16,2.6-12.03,4.49-17.89,3.14-9.69,9.93-16.37,18.16-21.84,2.08-1.38,4.21-2.7,6.28-4.1.67-.46,1.42-1.04,1.16-2-.29-1.02-1.29-.93-2.07-.94-3.5-.03-7,0-10.5,0-2.63,0-4.98-.64-6.39-3.12-1.49-2.63-.49-4.89,1.35-6.8,2.28-2.37,1.29-3.62-1.18-4.83-6.63-3.24-13.51-6.07-20.77-6.96-8.07-1-16.12-2.49-24.34-2.26-17.85.5-35.45-3.58-53.36-2.74-20.22.95-39.27,5.87-56.31,16.68-10.4,6.6-21.04,12.86-31.13,19.89-10.12,7.05-20.29,13.9-31.07,19.9-6.01,3.34-10.17,9.15-15.78,13.02-18.32,12.63-33.86,28.53-50.85,42.72-8.07,6.74-13.76,15.35-17.8,25.01-1.05,2.5-2.21,4.83-4.23,6.68-12.36,11.39-21.38,25.46-31.2,38.88-7.27,9.92-15.54,19.16-21.02,30.33-1.25,2.54-3.18,4.92-3.7,7.59-2.04,10.38-7.39,19.26-12.4,28.26-5.53,9.93-9.6,20.51-14.28,30.81-3.11,6.83-2.17,7.93,5.33,8.29,9.29.45,18.11,2.61,26.16,7.45,5.71,3.43,10.3,7.91,13.12,14.02,4.33,9.38,8.45,18.79,9.3,29.35.94,11.7,5.44,21.79,14.45,29.75,3.61,3.19,6.71,6.99,8.39,11.67,2.74,7.66-1.18,16.96-10.39,15.93-3.64-.41-4.68,1.4-4.38,4.76.65,7.14.82,14.29.08,21.46-.93,8.96-4.93,13.66-13.88,15.01-6.08.91-12.27,1.09-18.41,1.64-10.15.9-11.7,2.75-11,12.77.24,3.41,1.42,6.48,2.91,9.49.89,1.79,1.94,3.52,2.6,5.39,1.07,3.03,1.24,6.18-2.26,7.73-3.36,1.48-5.12-.97-6.76-3.48-5.43-8.32-6.95-17.45-6.36-27.22.37-6.06,3.1-10.02,8.64-12.2,4.38-1.73,8.96-2.6,13.63-2.94,4.15-.3,8.33-.31,12.48-.66,6.74-.57,8.29-2.33,8.66-9.06.44-7.84-.34-15.66-.41-23.48-.07-7.53,2.57-9.87,10.05-9.5,1.71.09,3.93,1.2,4.89-1.05.81-1.9-.83-3.43-1.86-4.9-.86-1.22-1.8-2.45-2.95-3.39-12.8-10.47-17.2-24.85-18.92-40.46-1.01-9.16-4.92-17.25-9.42-25.03-2.94-5.08-8.01-7.62-13.6-9.24Zm-7.29-438.44c.9.51,1.41.98,1.99,1.11,5.04,1.13,10.11,2.03,15.28,2.47,8.65.74,12.48,4.05,14.82,12.37.68,2.4,1.27,4.84,1.74,7.29,3.62,18.95-4.09,33.31-22.12,40.16-4.6,1.75-8.59,5.61-13.9,5.05-9.66-1.03-19.07-3.2-27.81-7.62-5.14-2.6-8.06-6.79-8.52-12.64-.56-7.18-.08-14.31.49-21.46.56-7.08,3.98-12.47,8.83-17.37,4.72-4.76,10.41-6.99,16.87-7.83,1.72-.22,3.39-.95,3.09-3.16-.32-2.32-2.12-2.24-3.84-1.94-8.5,1.44-17.17,2.08-24.32,8.03-3.23,2.69-5.56,6.16-8.92,8.69-4.84,3.65-6.78,8.81-7.05,14.81-.42,9.4.35,18.68,2.79,27.74,1.22,4.54.13,8.16-2.77,11.55-3.9,4.55-7.78,9.13-11.64,13.72-1.28,1.52-3.13,3.14-2.47,5.19.79,2.46,3.39,1.47,5.26,1.59,6.73.44,8.82,3.13,7.48,9.78-1.27,6.3-1.16,12.51.63,18.77,1.26,4.38,3.81,6.45,8.24,7.5,6.43,1.52,12.92,1.2,19.37,1.78,9.34.84,13.13,4.61,12.39,13.91-.79,10.1-3.49,19.94-6.71,29.57-.35,1.06-1.11,2.07-1.91,2.89-1.37,1.41-3.11,1.97-5.03,1.17-1.87-.78-2.94-2.34-2.86-4.31.07-1.63.64-3.24,1.03-4.85,1.74-7.28,3.52-14.54,5.22-21.83.95-4.09-.59-6.5-4.93-6.74-3.16-.18-6.34-.13-9.49-.42-18.91-1.72-25.25-5.65-27.09-27.78-.11-1.32-.11-2.69.11-3.99.61-3.53-.2-5.28-4.28-6.05-8.05-1.51-10.66-7.5-7.51-15.01,2.06-4.9,5.34-8.93,9.04-12.46,6.64-6.33,9.54-13.29,5.96-22.24-.6-1.5-.5-3.28-.77-4.93-3.5-21.06,5.01-36.23,22.31-47.86,6.9-4.64,14.29-6.05,22-7.22,2.64-.4,3.78-1.03,1.96-3.72-2.89-4.27-5.51-8.74-8.46-12.97-6.24-8.94-13.52-16.18-23.64-21.5-11.79-6.2-24.38-10.75-35.72-17.8-2.78-1.73-5.94-2.1-9.16-2.01-10.32.3-20.68.2-30.96,1.07-8.25.7-16.58.92-24.64,3.62-19.54,6.56-38.86,13.33-52.81,29.78-2.14,2.53-4.55,4.9-7.14,6.97-19.56,15.67-36.03,34.01-48.71,55.69-2.13,3.64-3.74,7.42-4.91,11.44q-2.78,9.53,7.04,10.48c2.48.24,5.53.15,6.07,3.21.56,3.14-1.59,5.09-4.37,6.51-5.75,2.94-9.76,7.94-14.11,12.49-1.9,1.99-1.52,3.69,1.19,5.03,9.38,4.65,18.57,9.39,26.33,16.86,5.15,4.96,8.73,10.09,10.61,16.97,3.5,12.83,4.62,25.89,4.77,39.08.07,5.67,1.83,10.26,5.93,14.28,3.19,3.13,5.98,6.73,8.56,10.39,8.61,12.21,3.37,21.2-9.32,20.27-3.68-.27-4.56,1.95-4.14,5.14.56,4.29,1.24,8.58,1.59,12.89.68,8.56-2.11,12.67-9.57,16.91-8.64,4.92-17.87,8.11-27.38,10.64-4.61,1.23-6.38,4.18-6.53,8.75-.21,6.71-.15,13.28,2.61,19.63,1.37,3.17,1.92,6.95-2.12,8.61-4.27,1.75-5.8-1.76-7.21-4.91-4.62-10.35-4.74-20.97-2.03-31.79,1.05-4.2,3.44-6.83,7.67-8.38,9.66-3.54,19.92-5.31,28.94-10.81,4.03-2.46,5.81-5.03,5.19-9.59-.69-5.11-1.44-10.24-1.64-15.39-.28-7.24,2.52-10.38,9.6-11.61,1.31-.23,2.64-.33,3.97-.46,3.25-.3,3.71-1.96,1.9-4.31-2.53-3.3-5.04-6.67-7.97-9.6-5.61-5.62-8.51-12.14-8.27-20.15.37-12.57-1.17-24.94-4.46-37.09-.92-3.4-1.67-6.91-4.59-9.22-6.99-5.54-13.31-11.78-21.73-15.62-6.61-3.02-12.14-5.4-17.92.79-1.26,1.35-4.29,1.27-3.89,3.91.35,2.25,2.73,2.7,4.54,3.48,17.52,7.55,24.45,21.01,20.49,39.96-.49,2.35-.46,4.51.39,6.83,2.12,5.72.85,9.88-3.93,13.65-6.39,5.04-13.84,5.23-21.43,4.43-2.99-.31-5.98-.96-8.89.18-4.83,1.9-9.25.83-13.24-2.02-3.65-2.61-7.4-5.25-10.43-8.5-2.9-3.12-7.95-2.76-10.03-6.18-5.3-8.72-9.25-18.15-5.25-28.43,3.15-8.09,2.85-16.99,7.71-25.8-4.11,1.59-6.66,3.28-8.17,5.76-3.29,5.39-7.34,10.35-9.81,16.23-9.57,22.79-6.33,45.08,3.62,66.65,3.97,8.61,8.01,17.2,11.86,25.87,2.67,6.01,2.89,12.23,1.34,18.6-.51,2.09-.84,4.26-1.02,6.41-1.14,13.89-5.59,26.67-12.85,38.51-1.86,3.03-4.25,5.76-8.06,3.6-3.72-2.11-2.16-5.4-.77-8.36.28-.6.53-1.23.87-1.8,5.47-9.11,9.48-18.82,10.28-29.47.55-7.36,4.4-14.58,1.37-22.1-3.48-8.65-7.26-17.15-11.49-25.49-5.58-11.01-9.14-22.97-10.63-35.13-1.19-9.67-.26-19.65,2.34-29.25,4.05-14.91,10.69-28.15,23.26-37.97,4.85-3.79,10.27-6.01,15.8-8.27,1.56-.64,3.96-1.07,2.59-3.75-3.21-6.3-6.75-11.79-14.36-14.22-16.17-5.17-32.33-10.46-47.64-18.01-4.03-1.99-8.49-2.59-13.09-2.8-17.97-.83-34.16,4.08-48.86,14.29-1.64,1.14-3.38,2.15-5.16,3.05-20.87,10.6-32.61,28.85-41.23,49.56-5.12,12.3-9.46,24.93-17.48,35.82-2.08,2.82-3.22,6.12-4.55,9.38-6.87,16.81-11.5,34.41-18.65,51.13-4.17,9.75-6.91,20.14-9.98,30.33-3.55,11.76-6.32,23.75-10.97,35.19-3.07,7.54-6.09,15.14-7.18,23.32-1.74,13.16-1.55,26.58-5.18,39.49-1.07,3.81.17,5.39,4.27,5.74,7.46.64,14.87,1.84,22.29,2.86,1.49.21,3.13.59,3.38,2.41.21,1.49-1.07,2.29-2.04,3.22-4.93,4.74-10.85,8-16.62,11.52-1.95,1.19-5.72,1.84-4.64,4.89,1.03,2.9,4.4,1.07,6.76,1.16,6.7.26,12.3-.47,15.35-8.22,3.29-8.34,11.17-12.61,18.48-17.37,14.09-9.19,27.76-18.99,43.76-24.85,7.7-2.82,15.71-4.41,23.51-6.82,7.85-2.42,15.98-2.95,24.19-2.94,12.49.02,25.04,1.04,37.43-1.04,22.94-3.86,46.04-5.08,69.22-4.27,8.71.3,17.76-.96,26.03,3.34,8.15,4.24,16.92,6.96,25.45,10.27,8.56,3.32,17.6,5.03,26.04,8.63,8.28,3.54,16.82,6.3,25.41,9.01,20.2,6.37,39.58,14.98,59.03,23.23,11.59,4.92,23.34,10.64,33.12,18.4,16.98,13.48,35.73,24.5,52.11,38.72,2.07,1.8,3.89,2.11,6.17.26,3.48-2.83,7.17-5.41,10.76-8.11,3.42-2.58,5.7-1.69,6.73,2.55.42,1.72-.09,3.3-.37,4.93-.95,5.57-2.78,10.98-2.54,16.76.13,3.13.84,4.86,4.41,3.74,4.52-1.42,9.23-1.57,13.87-1.21,4.14.32,5.62-1.42,6.91-5.24,3.18-9.4,6.25-19.01,10.92-27.7,6.14-11.42,13.68-22.07,16.73-34.97.84-3.57,2.89-6.71,4.64-9.93,5.6-10.28,12.71-19.47,19.8-28.75,10.71-14.01,19.96-29.14,32.78-41.47,1.84-1.77,2.82-4.08,3.93-6.34,4.72-9.65,10.37-18.75,18.52-25.84,7.67-6.67,15.59-13.06,22.79-20.23,10.32-10.28,22.94-17.71,33.65-27.42,8.25-7.49,17.3-13.5,27.12-18.55,1.48-.76,3.03-1.5,4.26-2.58,13.8-12.01,30.6-19.48,45.35-30.07,5.89-4.23,12.72-7.23,19.71-9.61,21.16-7.2,42.78-9.43,65.02-7.08,8.26.87,16.45,2.52,24.85,2.34,20.22-.43,39.88,2.18,57.93,12.2,1.91,1.06,3.93,1.61,5.47-.23,4.57-5.46,11.62-7.03,17.04-11.14,2.21-1.68,4.76-2.69,7.45-1.17,2.9,1.64,3.1,4.48,2.85,7.44-.36,4.15-1.74,8.15-1.58,12.37.4,10.56.36,10.56,10.68,10.09,1.16-.05,2.34-.11,3.5-.06,3.18.15,4.62-1.04,4.05-4.45-2.06-12.33-4.14-24.77-9.66-36.01-6.16-12.54-12.9-24.9-20.56-36.56-9.29-14.13-16.68-29.07-23.65-44.4-5.04-11.07-12.32-21.01-21.1-29.52-14.11-13.68-30.85-23.77-47.97-33.1-9.17-5-18.69-10.22-28.71-12.57-9.36-2.2-17.84-5.51-25.52-10.72-10.92-7.41-23.25-10.55-35.73-13.57-22.67-5.49-45.73-3.64-68.69-3.87-2.53-.03-5.02.44-7.31,1.47-8.9,4.02-18.26,4.63-27.85,4.21-4.14-.18-8.41-.25-12.45.53-26.31,5.08-50.19,15.52-70.82,32.91-2.33,1.97-2.73,3.47-.38,5.61,1.84,1.68,3.5,3.56,5.1,5.47,1.04,1.25,2.32,2.66,1.33,4.47-1.06,1.93-2.83,1.19-4.46.89-2.03-.37-4.1-.83-6.71.82,3.51,1.55,6.37,2.79,9.21,4.07,5.46,2.46,10.18,6.05,13.11,11.2,6.81,11.96,11.97,24.58,12.38,38.6.56,19.53-7.73,36.87-13.99,54.67-1.69,4.81-6.27,8.85-5.86,14.14,1.24,16.39-1.09,33.59,9.68,48.11.68.91,1.11,2.07,1.41,3.18.68,2.47.23,4.74-2.12,6.1-2.47,1.42-4.66.37-6.12-1.67-4.98-6.95-9.62-14.25-10.72-22.86-1.26-9.9-1.65-19.92-2.29-29.89-.27-4.2-.09-8.56,2.2-12.14,8.61-13.47,10.69-29.32,16.29-43.87,1.28-3.32,1.43-6.79,1.66-10.3.88-13.21-4.53-24.73-9.6-36.32-1.63-3.73-4.48-6.77-8.16-8.54-6.74-3.24-13.58-6.31-20.53-9.08-5.72-2.28-10.6-.25-15.12,4.07Zm-311.03,106.92c-3.82.08-7.32.22-10.64,1.4-3.49,1.23-7.09,2.78-8.22,6.62-2.23,7.54-2.52,15.03,2.15,21.99,1.99,2.96,4.11,5.03,8.2,3.67,3.89-1.3,6.87-2.66,6.89-7.66.01-4.64.82-9.35,5.53-12.06,5.07-2.92,2.71-7.81,2.43-11.65-.27-3.65-4.26-1.82-6.32-2.3Zm252.38,362.07c.04.91.1,2.9.25,4.89.07.96-.07,2.16,1,2.64,1.36.62,2.14-.47,2.87-1.37,2.4-2.96,5.26-5.49,7.21-8.89,2.77-4.85,7.17-7.77,12.64-8.98,5.08-1.12,10.2-1.39,15.38-.8,1.27.14,2.86.89,3.69-.47.99-1.61-.58-2.78-1.43-3.9-5.49-7.25-14.52-9.53-22.82-5.86-2.13.94-4.26,1.87-6.41,2.77-10.68,4.49-12.5,7.25-12.37,19.96Zm34.09-431.12c-.16,2.17,0,3.57,1.21,4.37,7.5,4.95,15.38,9.15,24.16,11.39,1.34.34,2.69.14,3.42-1.31.82-1.64.71-3.36-.54-4.62-1.02-1.02-2.39-1.76-3.71-2.39-6.11-2.91-9.76-7.73-11.47-14.2-.77-2.93-.74-5.91-.85-8.89-.03-.98.02-2.1-1.19-2.47-1.08-.33-1.99.23-2.57,1.08-3.76,5.5-6.82,11.34-8.45,17.04Zm55.24-6.82c-.16-5.03-1.34-10.71-3.28-16.23-1.53-4.38-4.66-6.9-9.29-7.07-4.85-.18-9.56-1.04-14.28-2.07-1.83-.4-4.34-1.39-5.13,1.28-.71,2.41.33,4.96,2.87,5.67,7.84,2.21,13.37,7.85,19.61,12.49,2.81,2.09,4.53,4.67,5.45,8.05.5,1.86.06,5.4,2.67,4.99,2.23-.35,1.06-3.73,1.37-5.77.02-.16,0-.33,0-1.33Zm382.53,189.58c2.12-.57,5.01-1.29,7.86-2.14,2.91-.86,3.42-2.68,2.14-5.37-1.5-3.14-2.71-6.41-4.19-9.57q-4.73-10.12-13.78-3.13c-4.18,3.23-5.06,6.61-2.75,12.41,1.75,4.39,4.64,7.65,10.73,7.8Zm-428.3,220.92c-.36,3.02.73,5.59,3.66,7.29,6.03,3.49,12.34,6.48,18.02,10.57,2.12,1.53,3.22.54,2.73-1.79-.98-4.7-1.74-9.53-4.45-13.64-3.71-5.63-9.04-8.02-15.78-7.46-3.04.25-4.65,1.55-4.19,5.02Zm-526.55-74.16c-7.14.7-14.09,1.26-21,2.1-6.17.76-9.85,6.14-8.62,12.1.31,1.51,1.2,2.91,2.63,1.95,4.94-3.3,11.28-2.9,16.09-6.4,3.18-2.32,6.67-3.74,10.68-3.39,2.84.25,4.61-.88,4.71-3.76.13-3.67-2.8-2.27-4.48-2.61Zm515.94,105.47c.26-5.89-2.04-7.81-7.02-6.06-3.12,1.1-6.02,2.83-8.99,4.33-4.19,2.11-4.69,5.57-2.66,9.24,2.13,3.86,5.64,6.41,10.22,5.85,4.45-.54,6.97-3.6,7.7-8.03.32-1.97.56-3.96.75-5.34Zm471.49-242.54c-4.88-.16-9.86-.39-13.02-3.97-4.51-5.11-9.25-5.41-14.89-2.6-1,.5-2.26.46-3.39.71-1.65.37-2.32,1.32-1.38,2.87,7.45,12.32,24.97,12.14,32.68,2.99Zm-746.8-134.1c.1-2.33-1.63-2.83-3.25-3.12-3.44-.61-6.91-1.04-10.38-1.49-9.74-1.26-13.59,1.95-14.28,11.73-.15,2.18.36,3.48,2.73,2.32,5.92-2.89,12.25-2.95,18.59-2.75,4.85.16,5.45-3.47,6.58-6.7Zm273.74,364.76c2.12,2.22,4.83,3.23,5.21,5.93,1.06,7.43.58,14.57-4.86,20.49-.83.9-2.83,1.56-1.67,3.01,1.2,1.5,2.82.24,3.91-.71,4.24-3.72,8.5-7.43,12.53-11.37,3.02-2.95.94-14.67-2.79-16.73-.57-.31-1.23-.52-1.88-.63-3.27-.53-6.55-1.08-10.46.01Zm-8.29,42.7c6.59,1.41,13.01,1.32,19.15-1.33,3.65-1.58,7.41-2.89,11.06-4.39,8.2-3.36,12.72-10.37,15.31-18.6.79-2.52-.43-3.6-2.91-2.36-4.02,2.01-7.89,4-9.51,8.87-3.01,9.03-9.55,14.11-18.94,15.56-4.72.73-9.44,1.49-14.16,2.24Zm-260.36-349.83c2.37-.18,5.01-1.17,6.26-3.63,1.2-2.35-1.56-3.3-2.82-4.64-1.73-1.85-3.08-3.91-4.16-6.16-.9-1.87-2.11-3.32-4.2-2.03-2.49,1.54-6.73,1.36-6.7,5.62.03,4.14,7.03,10.68,11.62,10.84Zm738.78,64.07c3.99-.05,7.9.22,8.93-4.65.62-2.95.53-5.95-.06-8.9-.59-2.95-1.89-3.28-3.84-.9-1.79,2.2-3.75,4.28-6.46,5.31-3.23,1.22-6.99,2.95-6.16,6.58.74,3.25,5.09,1.97,7.59,2.56Zm-441.89,257.61c2.34-1.45,6.15-1.93,7.67-5.07,1.41-2.92-1.34-4.83-3.23-6.61-3.29-3.11-7.34-5.09-11.25-7.26-.84-.46-1.85-1.26-2.73-.53-1.25,1.03-.26,2.29.41,3.05,3.63,4.12,5.67,8.88,6.31,14.31.14,1.21.77,2.2,2.83,2.12Zm1.15-441.21c.27-4.99-1.75-9.36-3.79-13.7-.67-1.43-1.92-2.28-3.54-2.34-1.3-.05-2.12.65-2.64,1.84-2.07,4.74,1.77,16.68,6.19,19.38,2.15,1.31,3.41,1,3.58-1.71.07-1.15.14-2.31.21-3.47Zm440.54,153c-6.84.11-8.64,3.03-5.75,8.55.53,1.01.73,2.19,1.16,3.26.68,1.71-.52,4.59,2.16,4.95,2.35.32,3.66-1.97,4.86-3.74,1.5-2.22,2.41-4.65,2.61-7.4.28-4.02-1.28-6.02-5.03-5.62Zm-723.34-54.01c.19-3.29-.32-6.33-3.46-8.17-2.32-1.36-4.92-2.1-6.24,1.04-1.14,2.7-1.8,5.8-.81,8.7,1.2,3.52,3.86,6.28,7.63,5.92,3.59-.34,2.18-4.16,2.83-6.51.09-.31.05-.66.05-.98Zm-237.57,248.33c-.72-2.52,1.72-6.45-1.39-8.35-2.19-1.33-4.22,1.91-6.42,2.89-4.55,2.03-2.79,5.49-1.66,8.46,1.3,3.41,5.13,5.34,7.81,5.15,3.15-.22,1.09-4.37,1.66-6.73.07-.31.01-.66.01-1.42Zm194.45-294.67c4.38.3,8,.38,11.59.83,3.78.48,7.52,1.3,11.27,2,.98.18,2.12.62,2.76-.36.86-1.32-.38-2.09-1.16-2.89-6.6-6.74-16.53-6.78-24.45.43Zm23.27,27.69c.19,1.3.14,3.22.79,4.87.8,2.04,2.7,3.56,4.68,1.71,2.78-2.59,5.09-5.69,7.51-8.65.27-.33.13-1.51-.21-1.75-3.1-2.21-6.76-3.19-10.38-2.59-3.12.52-1.9,3.74-2.39,6.42Zm276.36-95.84c-6.12-.14-8.23,1.97-7.87,8.62.13,2.46.7,4.89,1.15,7.33.14.77.31,1.74,1.28,1.9,1.07.18,1.37-.8,1.63-1.53,1.68-4.68,3.91-9.09,6.33-13.43,1.29-2.31.05-2.95-2.53-2.9Zm-.31,28.77c5.21,6.94,11.63,12.09,20.45,13.51,1.45.23,2.97.17,4.45.09.82-.05,1.62-.5,1.76-1.46.15-1.03-.61-1.56-1.41-1.74-8.98-2.06-16.7-7.05-25.25-10.4Zm1.86-32.97c2.48-.45,5.62-.89,8.69-1.61,2.93-.68,4.23-3.09,3.65-5.69-.65-2.94-3.3-1.31-5.05-1.1-3.56.43-6.65,2.11-9.3,4.51-.93.84-2.48,1.65-1.81,3.2.58,1.33,2.05.57,3.81.69ZM65.97,766.85c-1.75-3.23-3.6-6.55-5.36-9.91-.85-1.62-1.76-2.93-3.82-1.8-1.67.92-3.36,2.21-2.51,4.28,1.74,4.26,4.67,7.63,9.02,9.43,1.48.61,2.58-.05,2.66-2Zm532.91-359.82c-4.75-5.03-9.88-9.66-14.28-16.01-1.44,9.44,3.54,14.83,14.28,16.01Zm-31.41,418.53c-.39.24-1.09.46-1.47.94-1.47,1.83-4.16,3.2-2.55,6.29,1.69,3.25,6.9,6.02,9.46,5,1.93-.77,2.81-1.97,1.01-3.66-1.97-1.85-3.62-3.86-4.38-6.5-.27-.94-.57-1.95-2.07-2.07Zm511.54-271.6c-.33-4.14-.65-8.11-2.96-11.55-.73-1.08-1.5-2.5-3.1-1.65-1.23.65-.95,2.06-.61,3.14,1.24,3.96,2.22,7.94,2.45,12.12.08,1.44-.99,3.91,1.39,4.03,1.68.08,2.24-2.17,2.62-3.79.19-.79.15-1.64.21-2.3ZM71.97,753.19c.55-2.66-.35-4-2.71-3.82-2.25.17-5.86-.9-5.78,2.67.07,3.32,1.56,8.34,4.52,8.56,3.8.29,2.27-5.25,3.97-7.4Zm242.78-249.14c-2.94-4.78-6.22-8.07-8.23-12.26-1.09-2.27-3.56-.89-5.36-.17-1.27.51-1.96,1.72-.83,2.74,4.06,3.67,7.61,8.19,14.42,9.69Zm-233.38,248.9c.36,2.15.69,4.62,1.22,7.04.24,1.11.77,2.4,2.12,2.47,1.52.07,1.73-1.34,1.98-2.45.55-2.43,1.19-4.9.77-7.4-.43-2.54-.54-6.35-3.63-6.21-3.27.15-1.74,3.97-2.46,6.55Zm266.95-291.96c-1.62-5.59-5.84-8.95-10.34-12.06-.92-.63-2.1-1.43-3.11-.3-.95,1.07.04,2.15.44,3.19,2.24,5.88,8.5,6.23,13.01,9.17Zm-12.21,43.04c6.19-.03,11.7-1.3,15.38-6.64.71-1.03,1.58-2.6.2-3.54-1.22-.82-2,.7-2.72,1.52-3.37,3.8-7.14,6.32-12.6,4.98-1.94-.48-4.7-.44-4.61,2.14.08,2.45,2.94,1.07,4.37,1.53Zm-240.75,255.02c4.35-8.25,2.48-15.55-3.62-18.33-.91-.42-1.85-.91-2.7.01-.51.55-.4,1.28.07,1.8,3.89,4.35,4.8,9.95,6.26,16.52Zm-18.84-3.75c-2.49,3-3.24,6.18-3.5,9.17-.31,3.67,3.05,3.82,5.67,4.1,1.48.16,2.83-.6,2.2-2.38-1.26-3.51-2.76-6.94-4.37-10.9Zm968.19-208c-.12,3.62,1.82,5,4.87,5.17,2.22.12,3.45-.96,3.3-3.26-.2-3.02-1.17-5.74-4.61-6.04-2.83-.24-3.29,2.17-3.56,4.13Zm-6.79-21c2.7-1.46,5.5-2.75,8.05-4.44,1.81-1.2,5.63-1.69,4.77-4.13-.88-2.51-4.42-1.01-6.76-.88-1.79.1-4.98-.21-4.42,2.53.58,2.85-.32,4.57-1.64,6.91Zm-406.49-141.05c.07,0,.14,0,.21-.01-.19-1.64-.28-3.31-.61-4.92-.3-1.45-.76-3.19-2.66-3.05-1.89.14-2.23,1.86-2.12,3.39.19,2.64.53,5.28.96,7.89.2,1.19.98,2.28,2.31,2.22,1.41-.07,1.78-1.33,1.89-2.53.09-.99.02-1.99.02-2.98Zm-304.13,67.34c1.12-.3,3.2.7,2.83-1.52-.53-3.17-2.12-6.1-5.55-6.87-2.67-.6-4.11,1.68-4.19,3.81-.18,4.92,4.5,3.04,6.91,4.58Zm-14.14,19.79c-3,1.74-2.96,4.81-3.17,7.69-.13,1.72.63,3.14,2.59,2.48,2.22-.74,5.28-1.19,4.76-4.55-.36-2.31-.98-4.9-4.17-5.62Zm12.91-43.99c-1.51.6-4.42-1.09-4.2,1.72.16,2.07,2.19,4.39,4.78,4.22,2.59-.17,6.45-1.74,6.17-3.77-.39-2.86-4.44-1.2-6.74-2.17Zm259.55,351.95s-1.34-.03-2.64.15c-.91.13-1.63.92-.95,1.74,2.12,2.55,4.96,3.16,8.04,2.24,1.43-.43,4.26-.64,3.56-2.4-.92-2.32-3.99-1.47-6.2-1.73-.16-.02-.33,0-1.8,0Zm49.47-397.57c1.37,1.63-1.22,5.2,1.84,5.58,2.23.28,2.57-2.98,2.52-5.07-.05-2.14-.58-5-2.95-4.99-2.7.01-.67,2.78-1.42,4.48ZM72.65,774.86c-2.21.37-5.29-.54-5.44,2.77-.09,2.14,2.34,1.93,3.89,1.81,2.4-.18,5.86-.12,6.12-2.83.26-2.71-3.05-1.06-4.58-1.75Zm16.8-59.25c-3.27-.25-3.96,1.87-4.22,4.33-.11,1.05.27,2.32,1.45,1.99,2.66-.75,5.79-1.82,6.53-4.5.51-1.81-2.46-1.3-3.76-1.81Zm962.93-147.01c2.94,4.12,6.22,5.29,10.25,4.53.99-.19,1.92-.91,1.9-2.02-.03-1.3-1.22-1.36-2.2-1.47-3.05-.33-6.1-.64-9.94-1.04Zm-424.39-161.74c3.54-.24,6.51-1.72,8.56-4.64.67-.96-.62-1.83-1.65-1.85-3.92-.08-5.62,2.76-7.17,5.72-.05.09.09.29.26.77Zm-46.52,437.86c1.81-.36,4.32-.27,4-2.64-.32-2.32-2.9-2.27-4.83-2.26-1.58.01-4,.09-3.96,1.94.07,2.72,2.93,2.4,4.79,2.96ZM56.86,732.29c-1.75.84-4.25,1.09-4.87,3.51-.38,1.5,1.01,1.97,2.29,1.76,2.23-.37,4.28-1.18,4.69-3.76.21-1.33-.77-1.66-2.12-1.52Zm284.37-266.33c.38,2.87-.11,5.91,2.39,8.26.54.5,1.33-.01,1.45-.71.51-3.04.18-5.84-2.7-7.71-.1-.07-.31.04-1.13.17Zm735.33,100.74c-4.18,1.27-6.32,3.62-7.34,8.08,3.85-1.86,6.63-3.62,7.34-8.08ZM47.78,752.64c-.36-.99.5-3.1-1.5-2.81-1.77.26-2.12,2.27-2.32,3.91-.14,1.17-.04,2.68,1.41,2.61,2.07-.09,2.35-1.9,2.4-3.71Zm8.94-3.67c0-1.35-.59-2.32-1.9-2.5-1.95-.26-2.55,1.11-2.72,2.7-.12,1.17-.06,2.52,1.56,2.45,1.6-.07,2.7-1.04,3.06-2.66Zm10.68-13.72c1.53-.45,3.97.16,4.13-2.37.09-1.37-1.61-1.42-2.74-1.4-1.83.03-4.01.05-4.22,2.41-.13,1.49,1.6,1.26,2.83,1.36Zm572.07-338.53c2.29-.54,3.57-2.02,3.65-4.42.03-.87-.57-1.84-1.47-1.3-1.77,1.06-3.65,2.31-4.3,4.34-.37,1.16,1.04,1.34,2.11,1.39Z"/>
</svg>